<?xml version="1.0" encoding="utf-8" standalone="no"?>
<!DOCTYPE svg PUBLIC "-//W3C//DTD SVG 1.1//EN"
  "http://www.w3.org/Graphics/SVG/1.1/DTD/svg11.dtd">
<!-- Created with matplotlib (https://matplotlib.org/) -->
<svg height="288pt" version="1.1" viewBox="0 0 432 288" width="432pt" xmlns="http://www.w3.org/2000/svg" xmlns:xlink="http://www.w3.org/1999/xlink">
 <defs>
  <style type="text/css">
*{stroke-linecap:butt;stroke-linejoin:round;white-space:pre;}
  </style>
 </defs>
 <g id="figure_1">
  <g id="patch_1">
   <path d="M 0 288 
L 432 288 
L 432 0 
L 0 0 
z
" style="fill:#ffffff;"/>
  </g>
  <g id="axes_1">
   <g id="patch_2">
    <path clip-path="url(#p2fba8f9d33)" d="M 255.572713 143.28 
C 356.850181 124.581443 351.586276 105.635431 275.236079 117.876798 
C 311.43215 78.339718 293.029689 62.703633 261.206923 63.712344 
C 237.394954 44.443636 214.861942 102.879893 187.101681 74.723161 
C 165.579072 80.486936 139.626694 84.29683 179.675384 123.591738 
C 97.131019 107.346472 99.411709 126.439823 75.959661 143.28 
C 137.520378 154.859371 106.260116 176.573765 194.840611 155.812367 
C 156.338767 190.208734 193.124558 175.087096 181.593077 222.847656 
C 205.405046 242.116364 227.938058 183.680107 266.343536 233.114922 
C 264.276772 191.512158 305.734742 204.110736 301.175316 180.922943 
C 248.250716 151.044134 335.17424 158.986248 255.572713 143.28 
" style="fill:none;stroke:#000000;stroke-linejoin:miter;stroke-width:2;"/>
   </g>
  </g>
 </g>
 <defs>
  <clipPath id="p2fba8f9d33">
   <rect height="217.44" width="334.8" x="54" y="34.56"/>
  </clipPath>
 </defs>
</svg>
